<svg xmlns="http://www.w3.org/2000/svg" width="512" height="512" viewBox="0 0 512 512">
  <defs>
    <linearGradient id="bg" x1="0" y1="0" x2="1" y2="1">
      <stop offset="0" stop-color="#ffffff"/>
      <stop offset="1" stop-color="#f2f2f2"/>
    </linearGradient>
    <radialGradient id="lightSpot" cx="0" cy="0" r="1" gradientUnits="userSpaceOnUse" gradientTransform="translate(178 148) rotate(18) scale(260 260)">
      <stop offset="0" stop-color="#FFB36A" stop-opacity="0.34"/>
      <stop offset="0.22" stop-color="#FFD86E" stop-opacity="0.44"/>
      <stop offset="0.62" stop-color="#FFD86E" stop-opacity="0.18"/>
      <stop offset="1" stop-color="#FFD86E" stop-opacity="0"/>
    </radialGradient>
    <radialGradient id="coolFill" cx="0" cy="0" r="1" gradientUnits="userSpaceOnUse" gradientTransform="translate(370 370) rotate(-18) scale(260 260)">
      <stop offset="0" stop-color="#B7D8FF" stop-opacity="0.18"/>
      <stop offset="0.55" stop-color="#B7D8FF" stop-opacity="0.06"/>
      <stop offset="1" stop-color="#B7D8FF" stop-opacity="0"/>
    </radialGradient>
    <linearGradient id="ray" x1="0" y1="0" x2="1" y2="1">
      <stop offset="0" stop-color="#FFBE6B" stop-opacity="0.22"/>
      <stop offset="0.18" stop-color="#FFD86E" stop-opacity="0.24"/>
      <stop offset="0.72" stop-color="#FFD86E" stop-opacity="0.08"/>
      <stop offset="1" stop-color="#FFD35A" stop-opacity="0"/>
    </linearGradient>
    <filter id="soft" x="-20%" y="-20%" width="140%" height="140%">
      <feDropShadow dx="0" dy="3" stdDeviation="8" flood-color="#000000" flood-opacity="0.12"/>
    </filter>
    <filter id="glow" x="-40%" y="-40%" width="180%" height="180%">
      <feGaussianBlur stdDeviation="10" result="b"/>
      <feColorMatrix in="b" type="matrix"
        values="1 0 0 0 0
                0 1 0 0 0
                0 0 1 0 0
                0 0 0 0.65 0" result="g"/>
      <feMerge>
        <feMergeNode in="g"/>
        <feMergeNode in="SourceGraphic"/>
      </feMerge>
    </filter>
    <filter id="haze" x="-60%" y="-60%" width="220%" height="220%">
      <feTurbulence type="fractalNoise" baseFrequency="0.9" numOctaves="2" seed="3" result="n"/>
      <feColorMatrix in="n" type="matrix"
        values="0 0 0 0 1
                0 0 0 0 1
                0 0 0 0 1
                0 0 0 0.55 0" result="a"/>
      <feGaussianBlur in="a" stdDeviation="6" result="s"/>
      <feMerge>
        <feMergeNode in="s"/>
        <feMergeNode in="SourceGraphic"/>
      </feMerge>
    </filter>
    <mask id="coneMask">
      <rect width="512" height="512" fill="#000"/>
      <path d="M56 56 L318 120 L120 418 Z" fill="#fff"/>
      <path d="M64 56 L360 136 L132 448 Z" fill="#fff" opacity="0.55"/>
    </mask>
  </defs>

  <!-- Light, gallery-like tile -->
  <rect x="40" y="40" width="432" height="432" rx="104" fill="url(#bg)" filter="url(#soft)"/>
  <rect x="40" y="40" width="432" height="432" rx="104" fill="none" stroke="#111111" stroke-opacity="0.08" stroke-width="2"/>

  <!-- Physical-ish light: warm key + cool fill, with directional haze -->
  <circle cx="370" cy="370" r="240" fill="url(#coolFill)"/>
  <g filter="url(#glow)">
    <circle cx="178" cy="148" r="260" fill="url(#lightSpot)"/>
    <g fill="url(#ray)">
      <path d="M78 82 L238 134 L72 278 Z"/>
      <path d="M92 70 L286 128 L86 324 Z" opacity="0.82"/>
      <path d="M110 64 L334 140 L112 374 Z" opacity="0.64"/>
      <path d="M128 60 L372 166 L146 416 Z" opacity="0.48"/>
    </g>
  </g>
  <g mask="url(#coneMask)" filter="url(#haze)" opacity="0.55">
    <rect x="40" y="40" width="432" height="432" rx="104" fill="#FFD86E" opacity="0.18"/>
  </g>

  <!-- Geometric construction lines -->
  <g fill="none" stroke="#111111" stroke-opacity="0.18" stroke-width="4">
    <circle cx="256" cy="256" r="152"/>
    <circle cx="256" cy="256" r="104" stroke-opacity="0.14"/>
    <path d="M256 104 L256 408"/>
    <path d="M104 256 L408 256"/>
    <path d="M148 148 L364 364" stroke-opacity="0.14"/>
    <path d="M364 148 L148 364" stroke-opacity="0.14"/>
  </g>

  <!-- Cambrian “specimen” (simple trilobite-like geometry) -->
  <g>
    <ellipse cx="256" cy="268" rx="98" ry="118" fill="#ffffff" fill-opacity="0.58" stroke="#0f0f0f" stroke-opacity="0.34" stroke-width="5"/>
    <ellipse cx="256" cy="224" rx="60" ry="56" fill="none" stroke="#0f0f0f" stroke-opacity="0.26" stroke-width="4"/>
    <path d="M188 268 C 216 250, 296 250, 324 268" fill="none" stroke="#0f0f0f" stroke-opacity="0.28" stroke-width="4" stroke-linecap="round"/>
    <path d="M180 312 C 214 292, 298 292, 332 312" fill="none" stroke="#0f0f0f" stroke-opacity="0.24" stroke-width="4" stroke-linecap="round"/>
    <path d="M170 352 C 214 332, 298 332, 342 352" fill="none" stroke="#0f0f0f" stroke-opacity="0.20" stroke-width="4" stroke-linecap="round"/>
    <path d="M256 156 L256 388" fill="none" stroke="#0f0f0f" stroke-opacity="0.18" stroke-width="4" stroke-linecap="round"/>
  </g>

  <!-- Diversification “burst” ring (explosion motif, kept minimal) -->
  <g fill="none" stroke="#FFD86E" stroke-width="9" stroke-linecap="round" opacity="0.60">
    <path d="M256 118 L256 144"/>
    <path d="M336 136 L320 156"/>
    <path d="M388 206 L362 218"/>
    <path d="M394 296 L368 288"/>
    <path d="M346 370 L328 350"/>
    <path d="M256 394 L256 368"/>
    <path d="M166 370 L184 350"/>
    <path d="M118 296 L144 288"/>
    <path d="M124 206 L150 218"/>
    <path d="M176 136 L192 156"/>
  </g>
</svg>
