<svg xmlns="http://www.w3.org/2000/svg" width="512" height="512" viewBox="0 0 512 512">
  <defs>
    <linearGradient id="bg" x1="0" y1="0" x2="1" y2="1">
      <stop offset="0" stop-color="#ffffff"/>
      <stop offset="1" stop-color="#f2f2f2"/>
    </linearGradient>
    <radialGradient id="lightSpot" cx="0" cy="0" r="1" gradientUnits="userSpaceOnUse" gradientTransform="translate(180 150) rotate(18) scale(240 240)">
      <stop offset="0" stop-color="#FFD35A" stop-opacity="0.55"/>
      <stop offset="0.55" stop-color="#FFD35A" stop-opacity="0.20"/>
      <stop offset="1" stop-color="#FFD35A" stop-opacity="0"/>
    </radialGradient>
    <linearGradient id="ray" x1="0" y1="0" x2="1" y2="1">
      <stop offset="0" stop-color="#FFD35A" stop-opacity="0.26"/>
      <stop offset="0.7" stop-color="#FFD35A" stop-opacity="0.10"/>
      <stop offset="1" stop-color="#FFD35A" stop-opacity="0"/>
    </linearGradient>
    <filter id="soft" x="-20%" y="-20%" width="140%" height="140%">
      <feDropShadow dx="0" dy="3" stdDeviation="8" flood-color="#000000" flood-opacity="0.12"/>
    </filter>
    <filter id="glow" x="-40%" y="-40%" width="180%" height="180%">
      <feGaussianBlur stdDeviation="10" result="b"/>
      <feColorMatrix in="b" type="matrix"
        values="1 0 0 0 0
                0 1 0 0 0
                0 0 1 0 0
                0 0 0 0.65 0" result="g"/>
      <feMerge>
        <feMergeNode in="g"/>
        <feMergeNode in="SourceGraphic"/>
      </feMerge>
    </filter>
  </defs>

  <!-- Light, gallery-like tile -->
  <rect x="40" y="40" width="432" height="432" rx="104" fill="url(#bg)" filter="url(#soft)"/>
  <rect x="40" y="40" width="432" height="432" rx="104" fill="none" stroke="#111111" stroke-opacity="0.08" stroke-width="2"/>

  <!-- Physical-ish light: spot + rays from top-left -->
  <g filter="url(#glow)">
    <circle cx="180" cy="150" r="240" fill="url(#lightSpot)"/>
    <g fill="url(#ray)">
      <path d="M92 96 L220 140 L78 266 Z"/>
      <path d="M112 84 L266 134 L96 312 Z" opacity="0.85"/>
      <path d="M134 76 L312 142 L124 360 Z" opacity="0.70"/>
      <path d="M156 70 L356 160 L160 408 Z" opacity="0.55"/>
    </g>
  </g>

  <!-- Geometric construction lines -->
  <g fill="none" stroke="#111111" stroke-opacity="0.16" stroke-width="3">
    <circle cx="256" cy="256" r="152"/>
    <circle cx="256" cy="256" r="104" stroke-opacity="0.12"/>
    <path d="M256 104 L256 408"/>
    <path d="M104 256 L408 256"/>
    <path d="M148 148 L364 364" stroke-opacity="0.12"/>
    <path d="M364 148 L148 364" stroke-opacity="0.12"/>
  </g>

  <!-- Cambrian “specimen” (simple trilobite-like geometry) -->
  <g>
    <ellipse cx="256" cy="270" rx="96" ry="116" fill="#ffffff" fill-opacity="0.62" stroke="#111111" stroke-opacity="0.22" stroke-width="3"/>
    <ellipse cx="256" cy="230" rx="58" ry="54" fill="none" stroke="#111111" stroke-opacity="0.18" stroke-width="3"/>
    <path d="M196 270 C 220 255, 292 255, 316 270" fill="none" stroke="#111111" stroke-opacity="0.20" stroke-width="3" stroke-linecap="round"/>
    <path d="M188 310 C 220 292, 292 292, 324 310" fill="none" stroke="#111111" stroke-opacity="0.18" stroke-width="3" stroke-linecap="round"/>
    <path d="M178 350 C 220 332, 292 332, 334 350" fill="none" stroke="#111111" stroke-opacity="0.15" stroke-width="3" stroke-linecap="round"/>
    <path d="M256 166 L256 386" fill="none" stroke="#111111" stroke-opacity="0.14" stroke-width="3" stroke-linecap="round"/>
  </g>

  <!-- Diversification “burst” ring (explosion motif, kept minimal) -->
  <g fill="none" stroke="#FFD35A" stroke-width="8" stroke-linecap="round" opacity="0.55">
    <path d="M256 118 L256 144"/>
    <path d="M336 136 L320 156"/>
    <path d="M388 206 L362 218"/>
    <path d="M394 296 L368 288"/>
    <path d="M346 370 L328 350"/>
    <path d="M256 394 L256 368"/>
    <path d="M166 370 L184 350"/>
    <path d="M118 296 L144 288"/>
    <path d="M124 206 L150 218"/>
    <path d="M176 136 L192 156"/>
  </g>
</svg>
