<svg xmlns="http://www.w3.org/2000/svg" width="512" height="512" viewBox="0 0 512 512">
  <defs>
    <linearGradient id="g" x1="0" y1="0" x2="1" y2="1">
      <stop offset="0" stop-color="#0b0b0b"/>
      <stop offset="1" stop-color="#171717"/>
    </linearGradient>
    <filter id="soft" x="-20%" y="-20%" width="140%" height="140%">
      <feDropShadow dx="0" dy="6" stdDeviation="10" flood-color="#000000" flood-opacity="0.35"/>
    </filter>
  </defs>

  <rect x="40" y="40" width="432" height="432" rx="96" fill="url(#g)" filter="url(#soft)"/>

  <!-- Pale “label” panel -->
  <rect x="128" y="128" width="256" height="256" rx="48" fill="#f2f0ec" opacity="0.96"/>

  <!-- Cambrian “strata” lines -->
  <path d="M150 220 C 210 190, 302 202, 362 176" fill="none" stroke="#111111" stroke-width="10" stroke-linecap="round" opacity="0.22"/>
  <path d="M150 264 C 212 236, 300 244, 362 216" fill="none" stroke="#111111" stroke-width="10" stroke-linecap="round" opacity="0.18"/>
  <path d="M150 308 C 214 282, 298 286, 362 256" fill="none" stroke="#111111" stroke-width="10" stroke-linecap="round" opacity="0.14"/>

  <!-- Accent “specimen” mark -->
  <path d="M256 192
           C 222 192, 198 220, 198 256
           C 198 292, 222 320, 256 320
           C 290 320, 314 292, 314 256
           C 314 220, 290 192, 256 192 Z"
        fill="none" stroke="#C7362F" stroke-width="14" stroke-linejoin="round"/>
  <path d="M232 238 C 246 230, 266 230, 280 238" fill="none" stroke="#C7362F" stroke-width="10" stroke-linecap="round"/>
  <path d="M232 274 C 246 282, 266 282, 280 274" fill="none" stroke="#C7362F" stroke-width="10" stroke-linecap="round"/>
</svg>

