<svg xmlns="http://www.w3.org/2000/svg" width="512" height="512" viewBox="0 0 512 512">
  <defs>
    <linearGradient id="bg" x1="0" y1="0" x2="1" y2="1">
      <stop offset="0" stop-color="#ffffff"/>
      <stop offset="1" stop-color="#f2f2f2"/>
    </linearGradient>
    <radialGradient id="lightSpot" cx="0" cy="0" r="1" gradientUnits="userSpaceOnUse" gradientTransform="translate(178 148) rotate(18) scale(260 260)">
      <stop offset="0" stop-color="#FFB36A" stop-opacity="0.44"/>
      <stop offset="0.22" stop-color="#FFD86E" stop-opacity="0.54"/>
      <stop offset="0.62" stop-color="#FFD86E" stop-opacity="0.22"/>
      <stop offset="1" stop-color="#FFD86E" stop-opacity="0"/>
    </radialGradient>
    <radialGradient id="coolFill" cx="0" cy="0" r="1" gradientUnits="userSpaceOnUse" gradientTransform="translate(370 370) rotate(-18) scale(260 260)">
      <stop offset="0" stop-color="#B7D8FF" stop-opacity="0.18"/>
      <stop offset="0.55" stop-color="#B7D8FF" stop-opacity="0.06"/>
      <stop offset="1" stop-color="#B7D8FF" stop-opacity="0"/>
    </radialGradient>
    <linearGradient id="ray" x1="0" y1="0" x2="1" y2="1">
      <stop offset="0" stop-color="#FFBE6B" stop-opacity="0.30"/>
      <stop offset="0.18" stop-color="#FFD86E" stop-opacity="0.32"/>
      <stop offset="0.72" stop-color="#FFD86E" stop-opacity="0.12"/>
      <stop offset="1" stop-color="#FFD35A" stop-opacity="0"/>
    </linearGradient>
    <filter id="soft" x="-20%" y="-20%" width="140%" height="140%">
      <feDropShadow dx="0" dy="3" stdDeviation="8" flood-color="#000000" flood-opacity="0.12"/>
    </filter>
    <filter id="glow" x="-40%" y="-40%" width="180%" height="180%">
      <feGaussianBlur stdDeviation="12" result="b"/>
      <feColorMatrix in="b" type="matrix"
        values="1 0 0 0 0
                0 1 0 0 0
                0 0 1 0 0
                0 0 0 0.85 0" result="g"/>
      <feMerge>
        <feMergeNode in="g"/>
        <feMergeNode in="SourceGraphic"/>
      </feMerge>
    </filter>
    <filter id="raySoft" x="-40%" y="-40%" width="180%" height="180%">
      <feGaussianBlur stdDeviation="3.2" result="b"/>
      <feColorMatrix in="b" type="matrix"
        values="1 0 0 0 0
                0 1 0 0 0
                0 0 1 0 0
                0 0 0 1 0" result="s"/>
      <feMerge>
        <feMergeNode in="s"/>
        <feMergeNode in="SourceGraphic"/>
      </feMerge>
    </filter>
    <filter id="haze" x="-60%" y="-60%" width="220%" height="220%">
      <feTurbulence type="fractalNoise" baseFrequency="0.9" numOctaves="2" seed="3" result="n"/>
      <feColorMatrix in="n" type="matrix"
        values="0 0 0 0 1
                0 0 0 0 1
                0 0 0 0 1
                0 0 0 0.55 0" result="a"/>
      <feGaussianBlur in="a" stdDeviation="6" result="s"/>
      <feMerge>
        <feMergeNode in="s"/>
        <feMergeNode in="SourceGraphic"/>
      </feMerge>
    </filter>
    <filter id="burstGlow" x="-80%" y="-80%" width="260%" height="260%">
      <feGaussianBlur stdDeviation="6" result="b1"/>
      <feGaussianBlur stdDeviation="18" result="b2"/>
      <feColorMatrix in="b2" type="matrix"
        values="1 0 0 0 0
                0 1 0 0 0
                0 0 1 0 0
                0 0 0 0.55 0" result="g2"/>
      <feMerge>
        <feMergeNode in="g2"/>
        <feMergeNode in="b1"/>
        <feMergeNode in="SourceGraphic"/>
      </feMerge>
    </filter>
    <mask id="coneMask">
      <rect width="512" height="512" fill="#000"/>
      <path d="M42 104 Q 112 40 236 68 Q 304 84 340 122 Q 284 250 206 414 Q 110 332 58 220 Q 34 164 42 104 Z" fill="#fff"/>
      <path d="M54 98 Q 132 42 262 74 Q 330 92 378 136 Q 314 278 224 444 Q 126 350 74 230 Q 48 170 54 98 Z" fill="#fff" opacity="0.55"/>
    </mask>
    <radialGradient id="burstAlpha" cx="256" cy="256" r="260" gradientUnits="userSpaceOnUse">
      <stop offset="0" stop-color="#ffffff" stop-opacity="1"/>
      <stop offset="0.55" stop-color="#ffffff" stop-opacity="0.95"/>
      <stop offset="0.80" stop-color="#ffffff" stop-opacity="0.70"/>
      <stop offset="1" stop-color="#ffffff" stop-opacity="0.30"/>
    </radialGradient>
    <mask id="burstMask">
      <rect width="512" height="512" fill="url(#burstAlpha)"/>
    </mask>
    <clipPath id="tileClip">
      <rect x="0" y="0" width="512" height="512" rx="124"/>
    </clipPath>
  </defs>

  <g clip-path="url(#tileClip)">
    <!-- Light, gallery-like tile (clipped to rounded square; outside is transparent) -->
    <rect x="0" y="0" width="512" height="512" rx="124" fill="url(#bg)"/>
    <rect x="0" y="0" width="512" height="512" rx="124" fill="none" stroke="#171717" stroke-opacity="0.10" stroke-width="2"/>

    <g transform="translate(256 256) scale(1.03125) translate(-256 -256)">
    <!-- Physical-ish light: warm key + cool fill, with directional haze -->
    <circle cx="370" cy="370" r="240" fill="url(#coolFill)"/>
    <g filter="url(#glow)">
      <circle cx="178" cy="148" r="260" fill="url(#lightSpot)"/>
      <g fill="url(#ray)" filter="url(#raySoft)">
        <!-- Nested curved beams (reduce visible overlaps) -->
        <path d="M46 102 Q 132 42 252 76 Q 314 92 346 132 Q 292 252 214 424 Q 112 330 58 220 Q 40 166 46 102 Z" opacity="0.62"/>
        <path d="M72 98 Q 148 48 264 82 Q 324 98 348 132 Q 302 256 228 420 Q 136 340 84 230 Q 66 182 72 98 Z" opacity="0.46"/>
        <path d="M104 102 Q 176 60 282 98 Q 332 114 352 146 Q 308 266 242 406 Q 174 344 122 238 Q 106 194 104 102 Z" opacity="0.32"/>
      </g>
    </g>
    <g mask="url(#coneMask)" filter="url(#haze)" opacity="0.60">
      <rect x="0" y="0" width="512" height="512" rx="124" fill="#FFC94A" opacity="0.20"/>
    </g>

    <!-- Geometric construction lines -->
    <g fill="none" stroke="#171717" stroke-opacity="0.24" stroke-width="4.5">
      <circle cx="256" cy="256" r="160" stroke="#181410" stroke-opacity="0.42" stroke-width="5.5"/>
      <circle cx="256" cy="256" r="92" stroke-opacity="0.20"/>
      <path d="M256 96 L256 138" stroke-opacity="0.16"/>
      <path d="M256 138 L256 386" stroke-opacity="0.30"/>
      <path d="M256 386 L256 416" stroke-opacity="0.16"/>
      <path d="M96 256 L416 256"/>
      <path d="M143 143 L369 369" stroke-opacity="0.16"/>
      <path d="M369 143 L143 369" stroke-opacity="0.16"/>
    </g>

    <!-- Cambrian “specimen” (simple trilobite-like geometry) -->
    <g>
      <ellipse cx="256" cy="258" rx="104" ry="124" fill="#ffffff" fill-opacity="0.58" stroke="#181410" stroke-opacity="0.42" stroke-width="5.5"/>
      <ellipse cx="256" cy="210" rx="64" ry="60" fill="none" stroke="#181410" stroke-opacity="0.32" stroke-width="4.5"/>
      <path d="M213 256 Q 256 224 299 256" fill="none" stroke="#181410" stroke-opacity="0.34" stroke-width="4.5" stroke-linecap="round"/>
      <path d="M206 304 Q 256 268 306 304" fill="none" stroke="#181410" stroke-opacity="0.30" stroke-width="4.5" stroke-linecap="round"/>
      <path d="M212.72 336 Q 256 304 299.28 336" fill="none" stroke="#181410" stroke-opacity="0.26" stroke-width="4.5" stroke-linecap="round"/>
      <path d="M256 138 L256 378" fill="none" stroke="#181410" stroke-opacity="0.24" stroke-width="4.5" stroke-linecap="round"/>
    </g>

    <!-- Diversification “burst” ring (explosion motif, kept minimal) -->
    <g mask="url(#burstMask)">
      <g fill="none" stroke="#efbd66" stroke-width="18" stroke-linecap="round" opacity="0.16" filter="url(#burstGlow)">
        <path d="M220.2 112.4 A148 148 0 0 1 286.77 111.23"/>
        <path d="M301.73 115.24 A148 148 0 0 1 358.81 149.54"/>
        <path d="M398.27 296.79 A148 148 0 0 1 365.99 355.03"/>
        <path d="M355.03 365.99 A148 148 0 0 1 296.79 398.27"/>
        <path d="M149.54 358.81 A148 148 0 0 1 115.24 301.73"/>
        <path d="M111.23 286.77 A148 148 0 0 1 112.4 220.2"/>
      </g>
      <g fill="none" stroke="#edae55" stroke-width="11.5" stroke-linecap="round" opacity="0.88">
        <path d="M220.2 112.4 A148 148 0 0 1 286.77 111.23"/>
        <path d="M301.73 115.24 A148 148 0 0 1 358.81 149.54"/>
        <path d="M398.27 296.79 A148 148 0 0 1 365.99 355.03"/>
        <path d="M355.03 365.99 A148 148 0 0 1 296.79 398.27"/>
        <path d="M149.54 358.81 A148 148 0 0 1 115.24 301.73"/>
        <path d="M111.23 286.77 A148 148 0 0 1 112.4 220.2"/>
      </g>
      <g fill="none" stroke="#ffe2a6" stroke-width="5.5" stroke-linecap="round" opacity="0.56">
        <path d="M220.2 112.4 A148 148 0 0 1 286.77 111.23"/>
        <path d="M301.73 115.24 A148 148 0 0 1 358.81 149.54"/>
        <path d="M398.27 296.79 A148 148 0 0 1 365.99 355.03"/>
        <path d="M355.03 365.99 A148 148 0 0 1 296.79 398.27"/>
        <path d="M149.54 358.81 A148 148 0 0 1 115.24 301.73"/>
        <path d="M111.23 286.77 A148 148 0 0 1 112.4 220.2"/>
      </g>
    </g>
    </g>
  </g>
</svg>
