<svg xmlns="http://www.w3.org/2000/svg" width="512" height="512" viewBox="0 0 512 512">
  <defs>
    <linearGradient id="bg" x1="0.12" y1="0.08" x2="0.88" y2="0.92">
      <stop offset="0" stop-color="#db8f32"/>
      <stop offset="0.34" stop-color="#c04d17"/>
      <stop offset="0.70" stop-color="#6b2018"/>
      <stop offset="1" stop-color="#52120e"/>
    </linearGradient>
    <radialGradient id="tileLight" cx="0" cy="0" r="1" gradientUnits="userSpaceOnUse" gradientTransform="translate(182 146) scale(312 312)">
      <stop offset="0" stop-color="#f1c35f" stop-opacity="0.64"/>
      <stop offset="0.22" stop-color="#e38c45" stop-opacity="0.50"/>
      <stop offset="0.60" stop-color="#c24b2d" stop-opacity="0.18"/>
      <stop offset="1" stop-color="#c24b2d" stop-opacity="0"/>
    </radialGradient>
    <radialGradient id="tileShadow" cx="0" cy="0" r="1" gradientUnits="userSpaceOnUse" gradientTransform="translate(382 398) scale(330 330)">
      <stop offset="0" stop-color="#2b1108" stop-opacity="0.34"/>
      <stop offset="0.56" stop-color="#2b1108" stop-opacity="0.14"/>
      <stop offset="1" stop-color="#2b1108" stop-opacity="0"/>
    </radialGradient>
    <radialGradient id="lightSpot" cx="0" cy="0" r="1" gradientUnits="userSpaceOnUse" gradientTransform="translate(172 144) rotate(18) scale(330 330)">
      <stop offset="0" stop-color="#f1b25e" stop-opacity="0.74"/>
      <stop offset="0.18" stop-color="#db7633" stop-opacity="0.64"/>
      <stop offset="0.48" stop-color="#c4562b" stop-opacity="0.44"/>
      <stop offset="0.84" stop-color="#741b13" stop-opacity="0.18"/>
      <stop offset="1" stop-color="#972d24" stop-opacity="0"/>
    </radialGradient>
    <radialGradient id="coolFill" cx="0" cy="0" r="1" gradientUnits="userSpaceOnUse" gradientTransform="translate(370 370) rotate(-18) scale(260 260)">
      <stop offset="0" stop-color="#2f1808" stop-opacity="0.10"/>
      <stop offset="0.55" stop-color="#2f1808" stop-opacity="0.04"/>
      <stop offset="1" stop-color="#2f1808" stop-opacity="0"/>
    </radialGradient>
    <filter id="soft" x="-20%" y="-20%" width="140%" height="140%">
      <feDropShadow dx="0" dy="3" stdDeviation="8" flood-color="#000000" flood-opacity="0.10"/>
    </filter>
    <filter id="glow" x="-40%" y="-40%" width="180%" height="180%">
      <feGaussianBlur stdDeviation="20" result="b"/>
      <feColorMatrix in="b" type="matrix"
        values="1 0 0 0 0
                0 1 0 0 0
                0 0 1 0 0
                0 0 0 0.68 0" result="g"/>
      <feMerge>
        <feMergeNode in="g"/>
        <feMergeNode in="SourceGraphic"/>
      </feMerge>
    </filter>
    <filter id="burstGlow" x="-80%" y="-80%" width="260%" height="260%">
      <feGaussianBlur stdDeviation="6" result="b1"/>
      <feGaussianBlur stdDeviation="18" result="b2"/>
      <feColorMatrix in="b2" type="matrix"
        values="1 0 0 0 0
                0 1 0 0 0
                0 0 1 0 0
                0 0 0 0.52 0" result="g2"/>
      <feMerge>
        <feMergeNode in="g2"/>
        <feMergeNode in="b1"/>
        <feMergeNode in="SourceGraphic"/>
      </feMerge>
    </filter>
    <radialGradient id="burstAlpha" cx="256" cy="256" r="260" gradientUnits="userSpaceOnUse">
      <stop offset="0" stop-color="#ffffff" stop-opacity="1"/>
      <stop offset="0.55" stop-color="#ffffff" stop-opacity="0.95"/>
      <stop offset="0.80" stop-color="#ffffff" stop-opacity="0.70"/>
      <stop offset="1" stop-color="#ffffff" stop-opacity="0.30"/>
    </radialGradient>
    <mask id="burstMask">
      <rect width="512" height="512" fill="url(#burstAlpha)"/>
    </mask>
    <clipPath id="tileClip">
      <rect x="0" y="0" width="512" height="512" rx="124"/>
    </clipPath>
  </defs>

  <g clip-path="url(#tileClip)">
    <!-- Light, gallery-like tile (clipped to rounded square; outside is transparent) -->
    <rect x="0" y="0" width="512" height="512" rx="124" fill="url(#bg)"/>
    <rect x="0" y="0" width="512" height="512" rx="124" fill="url(#tileLight)"/>
    <rect x="0" y="0" width="512" height="512" rx="124" fill="url(#tileShadow)"/>
    <rect x="0" y="0" width="512" height="512" rx="124" fill="none" stroke="#f3dfcf" stroke-opacity="0.16" stroke-width="2.2"/>
    <rect x="26" y="26" width="460" height="460" rx="108" fill="none" stroke="#f3e4d6" stroke-opacity="0.78" stroke-width="3.8"/>

    <g transform="translate(256 256) scale(1.18) translate(-256 -256)">
    <!-- Physical-ish light: warm key + cool fill, with directional haze -->
    <circle cx="370" cy="370" r="240" fill="url(#coolFill)"/>
    <g filter="url(#glow)">
      <circle cx="176" cy="146" r="304" fill="url(#lightSpot)"/>
    </g>

    <!-- Geometric construction lines -->
    <g fill="none" stroke="#f2e1d3" stroke-opacity="0.22" stroke-width="3.6">
      <circle cx="256" cy="256" r="166" stroke="#f4e5d7" stroke-opacity="0.74" stroke-width="4.3"/>
      <circle cx="256" cy="256" r="166" stroke="#fff8f0" stroke-opacity="0.12" stroke-width="1.2"/>
      <circle cx="256" cy="256" r="98" stroke-opacity="0.34"/>
      <path d="M256 90 L256 132" stroke-opacity="0.24"/>
      <path d="M256 132 L256 392" stroke-opacity="0.34"/>
      <path d="M256 392 L256 422" stroke-opacity="0.24"/>
      <path d="M90 256 L422 256" stroke-opacity="0.28"/>
      <path d="M139 139 L373 373" stroke-opacity="0.18"/>
      <path d="M373 139 L139 373" stroke-opacity="0.18"/>
    </g>

    <!-- Cambrian “specimen” (simple trilobite-like geometry) -->
    <g>
      <ellipse cx="256" cy="260" rx="112" ry="136" fill="#faf1e4" fill-opacity="0.10" stroke="#f8efe2" stroke-opacity="0.78" stroke-width="4.6"/>
      <ellipse cx="256" cy="208" rx="70" ry="68" fill="none" stroke="#f7eee3" stroke-opacity="0.44" stroke-width="3.1"/>
      <path d="M212 258 Q 256 222 300 258" fill="none" stroke="#faf2e7" stroke-opacity="0.52" stroke-width="3.1" stroke-linecap="round"/>
      <path d="M204 310 Q 256 270 308 310" fill="none" stroke="#f7eee3" stroke-opacity="0.48" stroke-width="3.1" stroke-linecap="round"/>
      <path d="M211 344 Q 256 308 301 344" fill="none" stroke="#f5ecde" stroke-opacity="0.44" stroke-width="3.1" stroke-linecap="round"/>
      <path d="M256 124 L256 390" fill="none" stroke="#fbf5eb" stroke-opacity="0.54" stroke-width="3.2" stroke-linecap="round"/>
    </g>
    <g fill="none" stroke="#fcf7ef" stroke-linecap="round" stroke-linejoin="round" opacity="0.14">
      <ellipse cx="256" cy="260" rx="107" ry="131" stroke-width="1.3"/>
      <ellipse cx="256" cy="208" rx="66" ry="64" stroke-width="1.0"/>
      <path d="M215 258 Q 256 225.5 297 258" stroke-width="0.95"/>
      <path d="M206 310 Q 256 272.5 306 310" stroke-width="0.95"/>
      <path d="M213 344 Q 256 311 299 344" stroke-width="0.95"/>
      <path d="M256 128 L256 386" stroke-width="1.0"/>
    </g>

    <!-- Diversification “burst” ring (explosion motif, kept minimal) -->
    <g mask="url(#burstMask)">
      <g fill="none" stroke="#f8f0e5" stroke-width="11.8" stroke-linecap="round" opacity="0.10" filter="url(#burstGlow)">
        <path d="M220.2 112.4 A148 148 0 0 1 286.77 111.23"/>
        <path d="M399.6 291.8 A148 148 0 0 1 369.37 351.13"/>
        <path d="M139.38 347.13 A148 148 0 0 1 111.24 286.77"/>
      </g>
      <g fill="none" stroke="#f8f1e7" stroke-width="3.85" stroke-linecap="round" opacity="0.1">
        <path d="M220.2 112.4 A148 148 0 0 1 286.77 111.23"/>
        <path d="M399.6 291.8 A148 148 0 0 1 369.37 351.13"/>
        <path d="M139.38 347.13 A148 148 0 0 1 111.24 286.77"/>
      </g>
    </g>
    </g>
  </g>
</svg>
